<?xml version="1.0" encoding="UTF-8" standalone="no"?>
<svg xmlns="http://www.w3.org/2000/svg" version="1.0" width="500.000000pt" height="500.000000pt" viewBox="0 0 500.000000 500.000000" preserveAspectRatio="xMidYMid meet">
  <g transform="translate(0.000000,500.000000) scale(0.100000,-0.100000)" fill="#000000" stroke="none">
    <path d="M1692 3313 l-192 -268 318 -312 c174 -172 320 -312 324 -313 9 0 128 369 128 399 0 32 -16 59 -71 118 -53 56 -62 90 -33 131 l15 22 40 -20 c30 -16 41 -18 44 -8 3 7 18 58 35 113 30 101 46 125 85 125 23 0 55 -28 55 -48 0 -15 17 -16 25 -2 3 6 20 10 36 10 23 0 34 -7 47 -30 13 -23 24 -30 48 -30 34 0 54 -17 57 -49 1 -16 6 -19 29 -14 33 7 68 -19 68 -50 0 -33 -71 -260 -91 -294 -20 -31 -77 -87 -98 -94 -5 -2 -43 -125 -82 -272 l-72 -268 46 -46 46 -47 307 300 c169 164 394 385 500 489 l194 190 -192 268 -191 267 -617 0 -617 0 -191 -267z m406 157 c41 -25 72 -75 72 -117 0 -28 6 -35 58 -64 31 -18 59 -34 61 -36 5 -3 -30 -123 -36 -123 -3 0 -35 18 -73 40 -67 39 -69 39 -104 25 -46 -20 -72 -19 -122 4 -43 20 -84 73 -84 110 0 26 2 26 50 -4 59 -37 75 -33 110 28 16 28 30 55 30 60 0 4 -25 23 -56 43 -42 27 -53 38 -43 45 25 16 103 10 137 -11z m696 -511 c33 -19 40 -20 85 -8 128 33 233 -81 185 -199 -21 -53 -63 -84 -124 -90 -83 -8 -160 53 -160 127 0 24 -7 34 -31 46 -26 14 -30 20 -24 43 16 68 26 102 30 102 2 0 20 -9 39 -21z"></path>
    <path d="M2848 2853 l-26 -48 25 -42 c25 -42 26 -43 79 -43 52 0 54 1 80 42 l27 43 -25 45 c-25 44 -26 45 -80 48 l-54 3 -26 -48z"></path>
    <path d="M3180 2031 l0 -80 -30 11 c-61 21 -139 -19 -141 -71 0 -9 -5 0 -12 19 -15 42 -50 63 -97 55 -19 -3 -56 -5 -82 -5 l-48 1 0 -105 0 -106 35 0 35 0 0 65 c0 52 4 69 20 85 24 24 34 25 54 4 12 -11 16 -35 16 -85 l0 -69 35 0 c34 0 35 1 35 43 1 36 2 39 12 22 25 -47 51 -65 90 -65 22 0 48 5 59 10 13 7 19 7 19 0 0 -5 16 -10 35 -10 l35 0 0 180 0 180 -35 0 -35 0 0 -79z m-19 -131 c22 -12 26 -59 7 -78 -7 -7 -24 -12 -38 -12 -48 0 -67 45 -33 82 18 20 36 23 64 8z"></path>
    <path d="M1130 2078 c0 -13 -7 -88 -15 -168 -8 -80 -15 -148 -15 -152 0 -5 18 -8 39 -8 l39 0 7 101 c4 55 11 97 15 92 4 -4 19 -44 34 -88 32 -98 38 -108 62 -103 14 2 28 29 54 103 l34 100 8 -40 c4 -22 7 -61 7 -87 1 -67 8 -78 47 -78 31 0 34 3 34 29 l0 29 29 -29 c24 -24 38 -29 78 -29 30 0 60 7 81 20 38 23 39 26 11 40 -16 9 -28 9 -50 -1 -35 -14 -79 0 -79 26 0 12 15 15 75 15 83 0 89 7 63 65 -33 73 -163 71 -202 -2 -14 -27 -14 -27 -20 32 -19 170 -13 155 -56 155 l-39 0 -39 -102 c-32 -82 -42 -99 -48 -83 -4 11 -22 56 -39 100 l-31 80 -42 3 c-38 3 -42 1 -42 -20z m498 -175 c2 -9 -9 -13 -37 -13 -39 0 -50 8 -34 24 11 11 66 2 71 -11z"></path>
    <path d="M2650 2064 c-32 -29 -38 -40 -29 -50 9 -12 20 -9 60 12 41 23 47 30 39 45 -17 32 -28 30 -70 -7z"></path>
    <path d="M1812 1961 c-8 -5 -34 -6 -58 -3 l-44 5 0 -107 0 -106 35 0 35 0 0 64 c0 80 6 96 36 96 32 0 44 -27 44 -99 l0 -61 35 0 34 0 3 78 3 77 30 0 30 0 3 -77 3 -78 34 0 c34 0 35 1 35 43 l0 42 19 -29 c27 -41 57 -55 120 -56 47 0 57 4 87 34 58 58 42 141 -32 172 -66 28 -132 11 -173 -43 -20 -27 -20 -27 -21 -5 0 30 -34 62 -65 62 -15 0 -39 -7 -56 -15 -27 -14 -32 -14 -51 0 -25 16 -65 20 -86 6z m434 -76 c15 -23 15 -27 0 -51 -24 -36 -76 -31 -90 8 -20 57 57 93 90 43z"></path>
    <path d="M2432 1954 c-12 -8 -22 -10 -22 -5 0 6 -16 11 -35 11 l-35 0 0 -105 0 -105 35 0 35 0 0 64 c0 76 17 101 60 92 22 -4 29 0 39 20 6 14 9 30 6 35 -9 14 -58 11 -83 -7z"></path>
    <path d="M2549 1951 c-83 -65 -47 -201 53 -201 22 0 48 5 59 10 13 7 19 7 19 0 0 -5 16 -10 35 -10 l35 0 0 106 0 105 -47 -1 c-27 0 -66 2 -88 6 -32 4 -46 1 -66 -15z m115 -57 c19 -18 21 -55 4 -72 -7 -7 -24 -12 -38 -12 -33 0 -50 17 -50 52 0 43 53 64 84 32z"></path>
    <path d="M3622 1961 c-8 -5 -34 -6 -58 -3 l-44 5 0 -107 0 -106 35 0 35 0 0 64 c0 80 6 96 36 96 32 0 44 -27 44 -99 l0 -61 35 0 34 0 3 78 3 77 30 0 30 0 3 -77 3 -78 34 0 35 0 0 90 c0 77 -3 93 -20 110 -24 24 -60 26 -101 5 -27 -14 -32 -14 -51 0 -25 16 -65 20 -86 6z"></path>
    <path d="M3271 1874 c5 -109 19 -124 116 -124 55 0 67 4 88 25 22 22 25 32 25 105 l0 80 -35 0 -35 0 0 -64 c0 -65 -14 -96 -45 -96 -31 0 -45 31 -45 96 l0 64 -36 0 -36 0 3 -86z"></path>
    <path d="M1970 1570 c0 -5 7 -10 15 -10 11 0 15 -12 15 -45 0 -25 5 -45 10 -45 6 0 10 20 10 45 0 33 4 45 15 45 8 0 15 5 15 10 0 6 -18 10 -40 10 -22 0 -40 -4 -40 -10z"></path>
    <path d="M2124 1536 c2 -92 70 -92 72 0 1 44 1 45 -3 7 -2 -23 -11 -47 -19 -53 -22 -19 -42 4 -47 53 -4 38 -4 37 -3 -7z"></path>
    <path d="M2280 1524 l0 -55 33 3 c30 3 32 6 34 43 1 47 -10 65 -43 65 -22 0 -24 -4 -24 -56z m55 21 c0 -5 -10 -11 -22 -13 -16 -2 -23 2 -23 13 0 11 7 15 23 13 12 -2 22 -7 22 -13z m0 -45 c0 -8 -10 -16 -22 -18 -18 -3 -23 2 -23 18 0 16 5 21 23 18 12 -2 22 -10 22 -18z"></path>
    <path d="M2430 1525 l0 -55 33 1 c30 2 30 2 5 6 -19 3 -28 10 -28 23 0 13 9 20 28 23 l27 4 -27 2 c-36 1 -39 31 -3 31 14 0 25 5 25 10 0 6 -13 10 -30 10 -30 0 -30 -1 -30 -55z"></path>
    <path d="M2567 1573 c-11 -10 -8 -103 3 -103 6 0 10 9 10 20 0 11 4 20 10 20 5 0 15 -9 22 -20 7 -11 17 -20 22 -20 4 0 3 7 -4 15 -10 12 -10 19 -2 27 7 7 12 20 12 30 0 26 -55 50 -73 31z m58 -33 c0 -8 -10 -16 -22 -18 -18 -3 -23 2 -23 18 0 16 5 21 23 18 12 -2 22 -10 22 -18z"></path>
    <path d="M2960 1565 c-15 -17 -6 -33 26 -45 13 -5 24 -16 24 -25 0 -18 -31 -20 -48 -3 -9 9 -12 9 -12 0 0 -14 44 -26 66 -18 22 8 13 38 -16 53 -14 7 -25 18 -25 25 0 14 8 14 40 2 18 -7 18 -6 6 9 -17 21 -44 22 -61 2z"></path>
    <path d="M2710 1520 c0 -27 5 -50 10 -50 6 0 10 23 10 50 0 28 -4 50 -10 50 -5 0 -10 -22 -10 -50z"></path>
    <path d="M2812 1523 c-11 -26 -18 -50 -15 -53 3 -3 8 1 10 8 5 14 63 17 63 2 0 -5 4 -10 10 -10 12 0 -23 93 -37 97 -6 2 -19 -18 -31 -44z m41 7 c4 -15 0 -20 -13 -20 -13 0 -17 5 -13 20 3 11 9 20 13 20 4 0 10 -9 13 -20z"></path>
  </g>
</svg>
